<?xml version="1.0" encoding="utf-8"?>

<!-- License Agreement at http://iconmonstr.com/license/ -->

<!DOCTYPE svg PUBLIC "-//W3C//DTD SVG 1.1//EN" "http://www.w3.org/Graphics/SVG/1.1/DTD/svg11.dtd">
<svg version="1.1" xmlns="http://www.w3.org/2000/svg" xmlns:xlink="http://www.w3.org/1999/xlink" x="0px" y="0px"
	 width="512px" height="512px" viewBox="0 0 512 512" enable-background="new 0 0 512 512" xml:space="preserve">
<path id="repeat-4-icon" d="M256,50C142.229,50,50,142.229,50,256s92.229,206,206,206s206-92.229,206-206S369.771,50,256,50z
	 M136.151,292.789c-6.267-10.029-9.893-21.878-9.893-34.576c0-36.093,29.259-65.352,65.353-65.352h99.715v-32.065l74.885,45.915
	l-74.885,45.915v-31.504h-99.715c-20.453,0-37.093,16.638-37.093,37.091c0,7.273,2.113,14.06,5.746,19.793L136.151,292.789z
	 M324.391,323.563h-99.715v31.641l-74.886-45.915l74.886-45.914v31.928h99.715c20.453,0,37.093-16.638,37.093-37.09
	c0-7.403-2.189-14.302-5.941-20.099l24.117-14.786c6.384,10.094,10.084,22.056,10.084,34.885
	C389.743,294.305,360.483,323.563,324.391,323.563z" fill="#fff"/>
</svg>
